PathFileType	4	(X/Y/Z)	/Users/itak/Documents/Research/Walk-IL/dataset/trc/00541_00009.trc
DataRate	CameraRate	NumFrames	NumMarkers	Units	OrigDataRate	OrigDataStartFrame	OrigNumFrames
100.000000	100.000000	4	53	mm	100.000000	548	878
Frame#	Time	RPSI			LPSI			L3			STRN			T10			C7			CLAV			RBAK			LBAK			LSHO			LUPA			LAEL			LAOL			LWTS			LWPS			LFRA			LIFD			LHPS			LHTS			RSHO			RUPA			RAEL			RAOL			RWTS			RWPS			RFRA			RIFD			RHTS			RHPS			RBHD			LFHD			RFHD			LBHD			LHIP			RHIP			RASI			LASI			LKNE			LTHI			LANK			LTIP			LTOE			LMT1			LMT5			LHEE			RKNE			RTHI			RANK			RTIP			RTOE			RMT1			RMT5			RHEE			
		X1	Y1	Z1	X2	Y2	Z2	X3	Y3	Z3	X4	Y4	Z4	X5	Y5	Z5	X6	Y6	Z6	X7	Y7	Z7	X8	Y8	Z8	X9	Y9	Z9	X10	Y10	Z10	X11	Y11	Z11	X12	Y12	Z12	X13	Y13	Z13	X14	Y14	Z14	X15	Y15	Z15	X16	Y16	Z16	X17	Y17	Z17	X18	Y18	Z18	X19	Y19	Z19	X20	Y20	Z20	X21	Y21	Z21	X22	Y22	Z22	X23	Y23	Z23	X24	Y24	Z24	X25	Y25	Z25	X26	Y26	Z26	X27	Y27	Z27	X28	Y28	Z28	X29	Y29	Z29	X30	Y30	Z30	X31	Y31	Z31	X32	Y32	Z32	X33	Y33	Z33	X34	Y34	Z34	X35	Y35	Z35	X36	Y36	Z36	X37	Y37	Z37	X38	Y38	Z38	X39	Y39	Z39	X40	Y40	Z40	X41	Y41	Z41	X42	Y42	Z42	X43	Y43	Z43	X44	Y44	Z44	X45	Y45	Z45	X46	Y46	Z46	X47	Y47	Z47	X48	Y48	Z48	X49	Y49	Z49	X50	Y50	Z50	X51	Y51	Z51	X52	Y52	Z52	X53	Y53	Z53	

549	5.48	241.4534759521484	1007.66552734375	386.9230041503906	240.8072204589844	1012.792419433594	253.5993499755859	245.0894470214844	1105.042358398438	313.8871154785156	484.9579772949219	1286.862182617188	295.9432067871094	237.3815155029297	1230.722534179688	311.9749450683594	293.4548950195312	1502.794311523438	318.668701171875	468.273681640625	1399.327026367188	297.9603576660156	228.4957275390625	1379.890747070312	412.7299499511719	254.6105346679688	1450.208251953125	227.7393951416016	351.4910888671875	1471.545288085938	141.6521759033203	339.6933288574219	1346.106811523438	60.84199523925781	360.5341491699219	1122.663208007812	36.32901382446289	270.9706726074219	1117.398681640625	82.68548583984375	438.5637512207031	872.8064575195312	81.30380249023438	395.1044311523438	854.6376953125	7.561288833618164	380.4927368164062	1035.174438476562	29.01087951660156	425.6036071777344	702.7086181640625	71.41020965576172	399.8381652832031	794.1307983398438	14.36147785186768	450.3259887695312	795.0658569335938	60.10029983520508	366.3349609375	1463.4140625	470.4529113769531	352.5001831054688	1399.21484375	540.06689453125	345.8881225585938	1108.38818359375	583.047607421875	288.4190979003906	1091.91162109375	559.1168823242188	474.9282836914062	887.6323852539062	539.1027221679688	435.6415710449219	867.9554443359375	607.38671875	355.6897583007812	1053.41796875	590.6611938476562	486.4898986816406	714.8345947265625	541.0574951171875	504.6466979980469	796.244140625	552.0921630859375	451.7470397949219	793.8662719726562	604.4854736328125	370.5656127929688	1678.41796875	379.7286071777344	514.0132446289062	1705.02294921875	231.1949768066406	509.2905883789062	1703.706665039062	375.6201782226562	383.4927978515625	1678.484619140625	215.0001983642578	358.126220703125	931.1372680664062	116.3937225341797	374.5041809082031	938.2435302734375	503.1048278808594	454.59375	967.6216430664062	438.16748046875	440.3967590332031	951.2667846679688	163.8635864257812	313.1836853027344	490.5538330078125	193.0373840332031	342.8285827636719	651.7203369140625	152.0190277099609	143.666748046875	43.76130676269531	225.7925109863281	201.2901000976562	259.8282165527344	201.9044952392578	351.7453002929688	38.80312347412109	290.3468322753906	279.0048522949219	47.08646774291992	320.1157531738281	264.2462768554688	35.13159561157227	214.0210571289062	74.08076477050781	61.26807403564453	274.2151489257812	505.1391906738281	512.4891357421875	462.8419494628906	439.4085083007812	791.9790649414062	503.7837524414062	513.48876953125	35.26287460327148	451.1268005371094	534.8633422851562	370.686767578125	451.6815795898438	726.3248901367188	69.45457458496094	402.619384765625	663.6257934570312	60.6803092956543	363.0931396484375	645.5675048828125	45.12303924560547	463.9745483398438	458.2375183105469	28.86116981506348	392.8346252441406	
550	5.49	244.6336822509766	1007.845092773438	388.0769348144531	243.9437103271484	1013.028503417969	254.8305816650391	248.1841583251953	1105.183349609375	315.1055297851562	488.0222778320312	1287.0087890625	297.2320861816406	240.4950561523438	1230.847534179688	313.0357666015625	296.5032348632812	1502.94091796875	319.7426452636719	471.3194580078125	1399.48828125	299.2724304199219	231.4770202636719	1380.043823242188	413.7662963867188	257.7830810546875	1450.357543945312	228.7239532470703	354.7846984863281	1471.666259765625	142.7824859619141	343.3915710449219	1346.160034179688	62.03585815429688	365.2579345703125	1122.737426757812	37.77921676635742	275.3861694335938	1117.100219726562	83.69844055175781	444.7613525390625	873.6436157226562	83.83734130859375	401.7979736328125	854.8648681640625	9.982216835021973	385.7781372070312	1035.372924804688	30.74702835083008	433.2987365722656	703.4198608398438	74.48716735839844	406.9818115234375	794.4151611328125	17.0396785736084	457.3017883300781	795.9501953125	62.91186904907227	369.2656555175781	1463.574829101562	471.5572814941406	355.3707885742188	1399.3984375	541.2183227539062	348.6990966796875	1108.511108398438	584.1767578125	291.3927612304688	1092.039184570312	560.3004150390625	478.2351684570312	888.0332641601562	540.1997680664062	438.9568176269531	868.300537109375	608.4315185546875	358.6977844238281	1053.599365234375	591.831298828125	490.1585693359375	715.289794921875	541.9798583984375	508.130859375	796.7269897460938	553.074462890625	455.2392578125	794.2118530273438	605.4563598632812	373.4729614257812	1678.5732421875	380.9303283691406	517.0217895507812	1705.297729492188	232.516845703125	512.1935424804688	1703.984741210938	376.9350280761719	386.5190734863281	1678.640869140625	216.2092132568359	360.9463500976562	931.7660522460938	117.632942199707	377.5870056152344	938.3838500976562	504.2271728515625	457.730224609375	967.7699584960938	439.3675537109375	443.5216064453125	951.44873046875	165.0217895507812	315.3798828125	490.8310852050781	193.7407073974609	345.4113159179688	652.0277099609375	152.8813171386719	143.5701904296875	44.21224975585938	226.0880279541016	202.4756622314453	260.5790710449219	202.3193969726562	351.8620910644531	38.76779174804688	290.2803649902344	279.247802734375	47.23223876953125	319.9651489257812	264.3229370117188	35.15442657470703	214.0545806884766	74.38680267333984	62.47013092041016	274.2148742675781	507.6179809570312	512.3179321289062	463.4885864257812	442.4584045410156	792.0650024414062	504.8643493652344	513.8391723632812	35.38080215454102	450.9909362792969	536.7928466796875	370.4351806640625	452.0263977050781	727.0012817382812	67.69109344482422	402.4868469238281	664.2048950195312	59.49334335327148	363.0771789550781	645.9718627929688	44.43639373779297	464.1255493164062	458.4775390625	29.16104888916016	392.7672424316406	
551	5.5	247.7911071777344	1008.025268554688	389.3090515136719	247.1127471923828	1013.236877441406	256.0983581542969	251.2926025390625	1105.2998046875	316.3330688476562	491.0971069335938	1287.140869140625	298.5455322265625	243.6488647460938	1230.951293945312	314.0782165527344	299.5683288574219	1503.068359375	320.8179016113281	474.3775329589844	1399.633056640625	300.6073608398438	234.4589996337891	1380.171630859375	414.7869567871094	260.9728393554688	1450.488403320312	229.7052917480469	358.1022644042969	1471.762451171875	143.9249572753906	347.1428527832031	1346.18701171875	63.24196624755859	370.0894165039062	1122.802001953125	39.25474166870117	279.8584594726562	1116.769409179688	84.65778350830078	451.0043640136719	874.4766845703125	86.49002075195312	408.6279602050781	855.0950927734375	12.47226238250732	391.1688232421875	1035.55908203125	32.53866195678711	441.0318298339844	704.13818359375	77.68614959716797	414.2644348144531	794.708740234375	19.78844261169434	464.3432006835938	796.837890625	65.85655975341797	372.1734924316406	1463.722412109375	472.681884765625	358.2194213867188	1399.567993164062	542.3807983398438	351.4737548828125	1108.6162109375	585.347900390625	294.3502807617188	1092.150268554688	561.5239868164062	481.5508117675781	888.4446411132812	541.3602294921875	442.2829284667969	868.6546630859375	609.5367431640625	361.6917419433594	1053.771362304688	593.053955078125	493.8550415039062	715.7572021484375	542.9778442382812	511.6280212402344	797.2254028320312	554.12744140625	458.7630310058594	794.5652465820312	606.4887084960938	376.3970031738281	1678.709594726562	382.1455078125	520.0557250976562	1705.55126953125	233.8569183349609	515.11328125	1704.239624023438	378.2716674804688	389.5727844238281	1678.77685546875	217.4302520751953	363.6537780761719	932.3755493164062	118.8398513793945	380.6934204101562	938.5294189453125	505.3851623535156	460.9027099609375	967.9199829101562	440.5844116210938	446.6621704101562	951.6011962890625	166.2094573974609	317.6328430175781	491.0819091796875	194.5008087158203	348.0437927246094	652.3049926757812	153.7713165283203	143.4987182617188	44.71307373046875	226.4056701660156	203.7240447998047	261.3268737792969	202.7713623046875	351.9900817871094	38.72740173339844	290.2070007324219	279.4826049804688	47.37452697753906	319.8543090820312	264.4081115722656	35.19050598144531	214.1021118164062	74.72714233398438	63.6988525390625	274.2419738769531	510.1027221679688	512.1318969726562	464.0812072753906	445.5974731445312	792.1161499023438	505.9371948242188	514.2092895507812	35.54209136962891	450.7978210449219	538.7255249023438	370.1756896972656	452.2952575683594	727.6873779296875	65.95515441894531	402.2577209472656	664.7617797851562	58.30746841430664	362.9871520996094	646.3572998046875	43.87286376953125	464.2150268554688	458.7369995117188	29.47019958496094	392.6488037109375	
552	5.51	250.9291687011719	1008.2138671875	390.6025695800781	250.3136444091797	1013.419067382812	257.3897094726562	254.4215850830078	1105.40087890625	317.5521240234375	494.1809387207031	1287.265258789062	299.8838806152344	246.8359985351562	1231.039306640625	315.1026306152344	302.6454467773438	1503.182739257812	321.8955383300781	477.4451599121094	1399.766479492188	301.96240234375	237.4401702880859	1380.27783203125	415.7919616699219	264.1727294921875	1450.6044921875	230.6876068115234	361.4327087402344	1471.839111328125	145.0838623046875	350.93701171875	1346.193969726562	64.46403503417969	375.014892578125	1122.863403320312	40.76022720336914	284.3930358886719	1116.411865234375	85.57891845703125	457.29052734375	875.3072509765625	89.24369812011719	415.5753784179688	855.3369750976562	15.01913452148438	396.64990234375	1035.739135742188	34.38799667358398	448.789794921875	704.8688354492188	80.97838592529297	421.6586303710938	795.0195922851562	22.59308624267578	471.4304504394531	797.73046875	68.91960906982422	375.0525512695312	1463.864990234375	473.8303527832031	361.0444641113281	1399.727905273438	543.5537719726562	354.2357788085938	1108.713989257812	586.55419921875	297.295166015625	1092.251098632812	562.7760009765625	484.8675842285156	888.865234375	542.5899047851562	445.6138305664062	869.0161743164062	610.7040405273438	364.6765747070312	1053.941650390625	594.3209228515625	497.56005859375	716.23095703125	544.0615234375	515.1268310546875	797.7315063476562	555.2620849609375	462.2982177734375	794.9235229492188	607.5906372070312	379.3384399414062	1678.833740234375	383.3751220703125	523.1136474609375	1705.784912109375	235.2128295898438	518.0502319335938	1704.472412109375	379.6295166015625	392.6543579101562	1678.8994140625	218.6640319824219	366.2947082519531	932.93115234375	120.0083694458008	383.8111877441406	938.6795043945312	506.5799255371094	464.1085510253906	968.0810546875	441.8235473632812	449.8282165527344	951.724365234375	167.4280700683594	319.9541320800781	491.3132019042969	195.3032989501953	350.7321166992188	652.5482177734375	154.6966094970703	143.4990234375	45.30084991455078	226.6938171386719	205.039794921875	262.0765380859375	203.2436676025391	352.1228942871094	38.68227386474609	290.1368408203125	279.7088317871094	47.51594161987305	319.7835693359375	264.5042114257812	35.24083709716797	214.1611633300781	75.09864044189453	64.94959259033203	274.2847290039062	512.5781860351562	511.9443359375	464.6169738769531	448.8092651367188	792.1359252929688	506.9968566894531	514.5889892578125	35.73397064208984	450.5614624023438	540.652587890625	369.9124755859375	452.4959411621094	728.3831176757812	64.24423217773438	401.9313659667969	665.2824096679688	57.11625671386719	362.8329467773438	646.7321166992188	43.42340087890625	464.2351379394531	459.0093078613281	29.79533958435059	392.4903869628906	
